<?xml version="1.0" encoding="UTF-8" standalone="no"?><!DOCTYPE svg PUBLIC "-//W3C//DTD SVG 1.1//EN" "http://www.w3.org/Graphics/SVG/1.1/DTD/svg11.dtd"><svg width="100%" height="100%" viewBox="0 0 1000 600" version="1.1" xmlns="http://www.w3.org/2000/svg" xmlns:xlink="http://www.w3.org/1999/xlink" xml:space="preserve" xmlns:serif="http://www.serif.com/" style="fill-rule:evenodd;clip-rule:evenodd;stroke-linejoin:round;stroke-miterlimit:2;"><g transform="matrix(1,0,0,1,-288,-93.5371)"><g transform="matrix(144,0,0,144,288,165.537)"><path d="M0.25,-0.313l0,-0.062l-0.063,0l0.001,-0.063l-0.126,0.001l0.001,0.375l0.125,-0.001l-0.001,-0.187l0.063,0l0,0.063l0.063,-0.001l-0.001,0.126l0.126,-0.001l-0.001,-0.375l-0.125,0.001l0.001,0.125l-0.063,-0.001Zm0.25,0.376l-0.5,-0.001l0,-0.562l0.5,0l0,0.563Z" style="fill-rule:nonzero;"/></g><g transform="matrix(144,0,0,144,369,165.537)"><path d="M0.438,0.063l-0.376,-0.001l0.001,-0.062l-0.063,-0l0,-0.375l0.063,0l-0.001,-0.063l0.376,0.001l-0.001,0.062l0.063,0l0,0.313l-0.063,-0.001l0.001,0.126Zm-0.313,-0.126l0.25,0.001l0,-0.063l-0.188,0l0.001,-0.063l0.25,0.001l-0.001,-0.126l-0.062,0.001l0,-0.063l-0.25,0l0,0.063l-0.063,-0.001l0.001,0.188l0.062,0l0,0.063Zm0.063,-0.251l0.125,0.001l-0.001,0.062l-0.125,0l0.001,-0.063Z" style="fill-rule:nonzero;"/></g><g transform="matrix(144,0,0,144,450,165.537)"><path d="M0.313,-0.188l-0.001,-0.062l-0.062,0l0,0.063l-0.063,-0.001l0.001,-0.187l-0.126,0l0.001,0.188l0.062,-0.001l0,0.126l0.125,-0.001l0,-0.062l0.063,0l-0.001,0.063l0.126,-0.001l-0.001,-0.125l0.063,0.001l0,-0.188l-0.125,0l0,0.188l-0.063,-0.001Zm0.188,0.251l-0.438,-0.001l0.001,-0.125l-0.063,0.001l0,-0.376l0.25,0.001l0,0.125l0.063,-0.001l-0.001,-0.125l0.251,0.001l-0,0.375l-0.063,-0.001l0,0.126Z" style="fill-rule:nonzero;"/></g><g transform="matrix(144,0,0,144,585,165.537)"><path d="M0.5,0.063l-0.5,-0.001l0,-0.562l0.5,0l0,0.563Zm-0.188,-0.126l0.126,0l-0.001,-0.375l-0.125,0l0.001,0.188l-0.126,-0l0.001,-0.188l-0.126,0l0.001,0.375l0.125,0l-0.001,-0.125l0.126,0l-0.001,0.125Z" style="fill-rule:nonzero;"/></g><g transform="matrix(144,0,0,144,666,165.537)"><path d="M0.375,0.063l-0.375,-0.001l0,-0.437l0.063,0l-0.001,-0.125l0.251,0l-0.001,0.313l0.063,-0.001l0,0.251Zm-0.313,-0.126l0.251,0.001l-0.001,-0.063l-0.062,0l0,-0.188l-0.188,0.001l0.001,0.062l0.062,0l0,0.125l-0.063,0l0.001,0.063Zm0.062,-0.313l0.125,0l0,-0.063l-0.125,0.001l0,0.062Z" style="fill-rule:nonzero;"/></g><g transform="matrix(144,0,0,144,729,165.537)"><path d="M0.438,0.063l-0.376,-0.001l0.001,-0.062l-0.063,-0l0,-0.438l0.063,0.001l-0.001,-0.063l0.376,0l-0.001,0.063l0.063,-0.001l0,0.438l-0.063,-0l0.001,0.063Zm-0.313,-0.126l0.25,0.001l0,-0.063l0.063,0l-0.001,-0.063l-0.062,0.001l0,-0.063l-0.125,0l0,-0.063l-0.063,0.001l0.001,-0.063l0.125,0l-0.001,0.063l0.126,-0.001l-0.001,-0.062l-0.062,0l0,-0.063l-0.25,0.001l0,0.062l-0.063,0l0.001,0.063l0.062,-0.001l0,0.063l0.125,0l0,0.063l0.063,-0.001l-0.001,0.063l-0.125,0l0.001,-0.063l-0.126,0.001l0.001,0.062l0.062,0l0,0.063Z" style="fill-rule:nonzero;"/></g><g transform="matrix(144,0,0,144,810,165.537)"><path d="M0.438,0.063l-0.376,-0.001l0.001,-0.062l-0.063,-0l0,-0.375l0.063,0l-0.001,-0.063l0.376,0.001l-0.001,0.5Zm-0.312,-0.126l0.25,0.001l0,-0.063l-0.188,0l0.001,-0.188l0.187,0.001l0,-0.063l-0.25,0l0,0.063l-0.063,-0.001l0.001,0.188l0.062,0l0,0.063Z" style="fill-rule:nonzero;"/></g><g transform="matrix(144,0,0,144,882,165.537)"><path d="M0.438,0.063l-0.376,-0.001l0.001,-0.062l-0.063,-0l0,-0.375l0.063,0l-0.001,-0.063l0.376,0.001l-0.001,0.062l0.063,0l0,0.375l-0.063,-0l0.001,0.063Zm-0.313,-0.126l0.25,0.001l0,-0.063l0.063,0l-0.001,-0.188l-0.062,0.001l0,-0.063l-0.25,0l0,0.063l-0.063,-0.001l0.001,0.188l0.062,0l0,0.063Zm0.188,-0.063l-0.126,0l0.001,-0.188l0.125,0.001l-0.001,0.187Z" style="fill-rule:nonzero;"/></g><g transform="matrix(144,0,0,144,963,165.537)"><path d="M0.25,0.063l-0.25,-0.001l0,-0.5l0.438,0.001l-0.001,0.062l0.063,0l0,0.25l-0.25,0l0,0.188Zm-0.188,-0.126l0.126,0.001l-0.001,-0.251l0.126,0.001l-0.001,0.062l0.126,0l-0.001,-0.063l-0.062,0.001l0,-0.063l-0.313,0l0.001,0.313Z" style="fill-rule:nonzero;"/></g><g transform="matrix(144,0,0,144,1044,165.537)"><path d="M0.438,0.063l-0.376,-0.001l0.001,-0.062l-0.063,-0l0,-0.375l0.063,0l-0.001,-0.063l0.376,0.001l-0.001,0.062l0.063,0l0,0.313l-0.063,-0.001l0.001,0.126Zm-0.313,-0.126l0.25,0.001l0,-0.063l-0.188,0l0.001,-0.063l0.25,0.001l-0.001,-0.126l-0.062,0.001l0,-0.063l-0.25,0l0,0.063l-0.063,-0.001l0.001,0.188l0.062,0l0,0.063Zm0.063,-0.251l0.125,0.001l-0.001,0.062l-0.125,0l0.001,-0.063Z" style="fill-rule:nonzero;"/></g><g transform="matrix(144,0,0,144,288,273.537)"><path d="M0.313,0.125l-0.251,0l0.001,-0.063l-0.063,0.001l0,-0.563l0.063,0l-0.001,-0.063l0.251,0l-0.001,0.25l-0.062,0l0,0.188l0.063,-0l-0.001,0.25Zm-0.187,-0.125l0.125,-0l0,-0.063l-0.063,0l0.001,-0.375l0.062,0l0,-0.062l-0.125,-0l0,0.062l-0.063,0l0.001,0.375l0.062,0l0,0.063Z" style="fill-rule:nonzero;"/></g><g transform="matrix(144,0,0,144,342,273.537)"><path d="M0.5,0.063l-0.5,-0.001l0,-0.562l0.5,0l0,0.563Zm-0.188,-0.126l0.126,0l-0.001,-0.375l-0.125,0l0.001,0.188l-0.126,-0l0.001,-0.188l-0.126,0l0.001,0.375l0.125,0l-0.001,-0.125l0.126,0l-0.001,0.125Z" style="fill-rule:nonzero;"/></g><g transform="matrix(144,0,0,144,423,273.537)"><path d="M0.438,0.063l-0.376,-0.001l0.001,-0.062l-0.063,-0l0,-0.375l0.063,0l-0.001,-0.063l0.376,0.001l-0.001,0.062l0.063,0l0,0.313l-0.063,-0.001l0.001,0.126Zm-0.313,-0.126l0.25,0.001l0,-0.063l-0.188,0l0.001,-0.063l0.25,0.001l-0.001,-0.126l-0.062,0.001l0,-0.063l-0.25,0l0,0.063l-0.063,-0.001l0.001,0.188l0.062,0l0,0.063Zm0.063,-0.251l0.125,0.001l-0.001,0.062l-0.125,0l0.001,-0.063Z" style="fill-rule:nonzero;"/></g><g transform="matrix(144,0,0,144,504,273.537)"><path d="M0.438,0.063l-0.376,-0.001l0.001,-0.062l-0.063,-0l0,-0.25l0.063,0l-0.001,-0.063l0.063,0.001l0,-0.126l0.313,0.001l-0.001,0.062l0.063,0l0,0.375l-0.063,-0l0.001,0.063Zm-0.313,-0.126l0.313,0.001l-0.001,-0.251l-0.062,0.001l0,-0.063l-0.188,0l0.001,0.063l0.125,-0.001l-0.001,0.063l-0.187,0l0,0.063l-0.063,-0.001l0.001,0.063l0.062,0l0,0.063Zm0.063,-0.126l0.125,0.001l-0.001,0.062l-0.125,0l0.001,-0.063Z" style="fill-rule:nonzero;"/></g><g transform="matrix(144,0,0,144,585,273.537)"><path d="M0.5,0.063l-0.438,-0.001l0.001,-0.062l-0.063,-0l0,-0.313l0.063,0.001l-0.001,-0.063l0.188,0l0,-0.125l0.25,0l0,0.563Zm-0.375,-0.126l0.313,0l-0.001,-0.375l-0.125,0l0.001,0.125l-0.188,0l0,0.063l-0.063,-0l0.001,0.125l0.062,-0l0,0.062Zm0.188,-0.062l-0.126,-0l0.001,-0.125l0.125,-0l-0.001,0.125Z" style="fill-rule:nonzero;"/></g><g transform="matrix(144,0,0,144,666,273.537)"><path d="M0.438,0.063l-0.376,-0.001l0.001,-0.062l-0.063,-0l0,-0.375l0.063,0l-0.001,-0.063l0.376,0.001l-0.001,0.062l0.063,0l0,0.313l-0.063,-0.001l0.001,0.126Zm-0.313,-0.126l0.25,0.001l0,-0.063l-0.188,0l0.001,-0.063l0.25,0.001l-0.001,-0.126l-0.062,0.001l0,-0.063l-0.25,0l0,0.063l-0.063,-0.001l0.001,0.188l0.062,0l0,0.063Zm0.063,-0.251l0.125,0.001l-0.001,0.062l-0.125,0l0.001,-0.063Z" style="fill-rule:nonzero;"/></g><g transform="matrix(144,0,0,144,747,273.537)"><path d="M0.25,0.063l-0.25,-0.001l0,-0.5l0.438,0.001l-0.001,0.062l0.063,0l0,0.25l-0.25,0l0,0.188Zm-0.188,-0.126l0.126,0.001l-0.001,-0.251l0.126,0.001l-0.001,0.062l0.126,0l-0.001,-0.063l-0.062,0.001l0,-0.063l-0.313,0l0.001,0.313Z" style="fill-rule:nonzero;"/></g><g transform="matrix(144,0,0,144,828,273.537)"><path d="M0.25,0.125l-0.25,0l0,-0.25l0.063,0l-0.001,-0.188l-0.062,0.001l0,-0.251l0.25,0l0,0.063l0.063,-0l-0.001,0.563l-0.062,-0.001l0,0.063Zm-0.188,-0.125l0.126,-0l-0.001,-0.063l0.063,0l0,-0.375l-0.063,0l0.001,-0.062l-0.126,-0l0.001,0.062l0.062,0l0,0.375l-0.063,0l0.001,0.063Z" style="fill-rule:nonzero;"/></g></g><g transform="matrix(1,0,0,1,0,161.472)"><g transform="matrix(144,0,0,144,0,165.537)"><path d="M0.188,-0l-0.126,-0l0.001,-0.313l-0.063,0.001l0,-0.063l0.063,0l-0.001,-0.063l0.126,0.001l-0.001,0.437Z" style="fill-rule:nonzero;"/></g><g transform="matrix(144,0,0,144,36,165.537)"><path d="M0.25,-0l-0.188,-0l0.001,-0.063l0.125,0.001l-0.001,-0.063l-0.125,0l0.001,-0.063l-0.063,0.001l0,-0.188l0.063,0l-0.001,-0.063l0.188,0.001l0,0.062l0.063,0l-0.001,0.313l-0.062,-0.001l0,0.063Zm-0.063,-0.188l0.001,-0.187l-0.063,0l0,0.188l0.063,-0.001Z" style="fill-rule:nonzero;"/></g><g transform="matrix(144,0,0,144,90,165.537)"><path d="M0.25,-0l-0.188,-0l0.001,-0.063l-0.063,0.001l0,-0.126l0.063,0.001l-0.001,-0.063l-0.062,0l0,-0.125l0.063,0l-0.001,-0.063l0.188,0.001l0,0.062l0.063,0l-0.001,0.125l-0.062,0l0,0.063l0.063,-0.001l-0.001,0.126l-0.062,-0.001l0,0.063Zm-0.063,-0.063l0.001,-0.125l-0.063,0.001l0,0.125l0.063,-0.001Zm-0.001,-0.187l0.001,-0.125l-0.063,0l0,0.125l0.063,0Z" style="fill-rule:nonzero;"/></g><g transform="matrix(144,0,0,144,144,165.537)"><path d="M0.25,-0l-0.188,-0l0.001,-0.063l-0.063,0.001l0,-0.313l0.063,0l-0.001,-0.063l0.188,0.001l0,0.062l0.063,0l-0.001,0.313l-0.062,-0.001l0,0.063Zm-0.063,-0.063l0.001,-0.312l-0.063,0l0,0.313l0.063,-0.001Z" style="fill-rule:nonzero;"/></g><g transform="matrix(144,0,0,144,198,165.537)"><path d="M0.25,-0l-0.188,-0l0.001,-0.063l-0.063,0.001l0,-0.251l0.125,0.001l0,0.25l0.063,-0.001l-0.001,-0.25l0.126,0.001l-0.001,0.25l-0.062,-0.001l0,0.063Z" style="fill-rule:nonzero;"/></g><g transform="matrix(144,0,0,144,252,165.537)"><path d="M0.125,-0.063l0.188,0.001l-0.001,0.062l-0.312,-0l0,-0.125l0.063,0l-0.001,-0.063l0.063,0.001l0,-0.063l0.063,0l-0.001,-0.125l-0.062,0l0,0.063l-0.125,-0.001l0,-0.062l0.063,0l-0.001,-0.063l0.188,0.001l0,0.062l0.063,0l-0.001,0.125l-0.062,0l0,0.063l-0.063,-0.001l0.001,0.063l-0.063,0l0,0.063Z" style="fill-rule:nonzero;"/></g><g transform="matrix(144,0,0,144,306,165.537)"><path d="M0.25,-0l-0.188,-0l0.001,-0.063l-0.063,0.001l0,-0.063l0.125,0l0,0.063l0.063,-0.001l-0.001,-0.125l-0.062,0.001l0,-0.063l0.063,0l-0.001,-0.125l-0.062,0l0,0.063l-0.125,-0.001l0,-0.062l0.063,0l-0.001,-0.063l0.188,0.001l0,0.062l0.063,0l-0.001,0.125l-0.062,0l0,0.063l0.063,-0.001l-0.001,0.126l-0.062,-0.001l0,0.063Z" style="fill-rule:nonzero;"/></g><g transform="matrix(144,0,0,144,360,165.537)"><path d="M0.125,-0l-0.125,-0l0,-0.438l0.25,0.001l0,0.062l0.063,0l-0.001,0.125l-0.062,0l0,0.063l-0.125,-0.001l0,0.188Zm0.063,-0.25l-0.001,-0.125l-0.062,0l0,0.125l0.063,0Z" style="fill-rule:nonzero;"/></g><g transform="matrix(144,0,0,144,414,165.537)"><path d="M0.25,-0l-0.188,-0l0.001,-0.063l-0.063,0.001l0,-0.313l0.063,0l-0.001,-0.063l0.188,0.001l0,0.062l0.063,0l-0.001,0.313l-0.062,-0.001l0,0.063Zm-0.063,-0.063l0.001,-0.312l-0.063,0l0,0.313l0.063,-0.001Z" style="fill-rule:nonzero;"/></g><g transform="matrix(144,0,0,144,468,165.537)"><path d="M0.188,-0l-0.126,-0l0.001,-0.313l-0.063,0.001l0,-0.063l0.063,0l-0.001,-0.063l0.126,0.001l-0.001,0.437Z" style="fill-rule:nonzero;"/></g><g transform="matrix(144,0,0,144,0,246.537)"><path d="M0.188,-0l-0.126,-0l0.001,-0.063l-0.063,0.001l0,-0.313l0.063,0l-0.001,-0.063l0.126,0.001l-0.001,0.062l-0.062,0l0,0.313l0.063,-0.001l-0.001,0.063Z" style="fill-rule:nonzero;"/></g><g transform="matrix(144,0,0,144,36,246.537)"><path d="M0.25,-0l-0.25,-0l0,-0.438l0.25,0.001l0,0.062l0.063,0l-0.001,0.125l-0.062,0l0,0.063l0.063,-0.001l-0.001,0.126l-0.062,-0.001l0,0.063Zm-0.063,-0.063l0.001,-0.125l-0.063,0.001l0,0.125l0.063,-0.001Zm-0.001,-0.187l0.001,-0.125l-0.063,0l0,0.125l0.063,0Z" style="fill-rule:nonzero;"/></g><g transform="matrix(144,0,0,144,90,246.537)"><path d="M0.25,-0l-0.188,-0l0.001,-0.063l-0.063,0.001l0,-0.188l0.063,0l-0.001,-0.063l0.188,0.001l0,0.062l0.063,0l-0.001,0.188l-0.062,-0.001l0,0.063Zm-0.063,-0.063l0.001,-0.187l-0.063,0l0,0.188l0.063,-0.001Z" style="fill-rule:nonzero;"/></g><g transform="matrix(144,0,0,144,144,246.537)"><path d="M0.313,-0l-0.251,-0l0.001,-0.063l-0.063,0.001l0,-0.188l0.063,0l-0.001,-0.063l0.126,0.001l-0.001,-0.126l0.126,0.001l-0.001,0.437Zm-0.125,-0.063l0.001,-0.187l-0.063,0l0,0.188l0.063,-0.001Z" style="fill-rule:nonzero;"/></g><g transform="matrix(144,0,0,144,198,246.537)"><path d="M0.25,0.125l-0.188,0l0.001,-0.063l0.125,0.001l-0.001,-0.063l-0.125,-0l0.001,-0.063l-0.063,0.001l0,-0.251l0.125,0.001l0,0.25l0.063,-0.001l-0.001,-0.25l0.126,0.001l-0.001,0.375l-0.062,-0.001l0,0.063Z" style="fill-rule:nonzero;"/></g><g transform="matrix(144,0,0,144,252,246.537)"><path d="M0.125,-0l-0.125,-0l0,-0.063l0.063,0.001l-0.001,-0.313l-0.062,0l0,-0.063l0.125,0.001l0,0.062l0.063,0l-0.001,0.313l-0.062,-0.001l0,0.063Z" style="fill-rule:nonzero;"/></g></g><g transform="matrix(1,0,0,1,0,371.463)"><g transform="matrix(54,0,0,54,0,165.537)"><path d="M0.333,-0.5l0,-0.167l-0.166,0l-0,0.167l0.166,0Zm-0.333,0.5l0,-0.833l0.5,-0l0,0.5l-0.333,-0l-0,0.333l-0.167,-0Z" style="fill-rule:nonzero;"/></g><g transform="matrix(54,0,0,54,35.9912,165.537)"><path d="M0,-0l0,-0.167l0.167,0l-0,-0.5l-0.167,0l0,-0.166l0.5,-0l0,0.166l-0.167,0l0,0.5l0.167,0l0,0.167l-0.5,0Z" style="fill-rule:nonzero;"/></g><g transform="matrix(54,0,0,54,71.9824,165.537)"><path d="M0.167,-0l-0,-0.167l0.333,0l0,0.167l-0.333,-0Zm-0.167,-0.167l0,-0.5l0.167,0l-0,0.5l-0.167,0Zm0.167,-0.5l-0,-0.166l0.333,-0l0,0.166l-0.333,0Z" style="fill-rule:nonzero;"/></g><g transform="matrix(54,0,0,54,107.974,165.537)"><path d="M0,-0l0,-0.667l0.167,0l-0,0.5l0.166,0l0,0.167l-0.333,0Zm0.333,-0.167l0,-0.5l-0.166,0l-0,-0.166l0.333,-0l0,0.666l-0.167,0Z" style="fill-rule:nonzero;"/></g><g transform="matrix(54,0,0,54,143.965,165.537)"><rect x="0" y="-0.5" width="0.5" height="0.167" style="fill-rule:nonzero;"/></g><g transform="matrix(54,0,0,54,179.956,165.537)"><path d="M0.333,-0.167l0,-0.166l-0.166,-0l-0,0.166l0.166,0Zm0,-0.333l0,-0.167l-0.166,0l-0,0.167l0.166,0Zm-0.333,0.5l0,-0.833l0.5,-0l0,0.833l-0.5,-0Z" style="fill-rule:nonzero;"/></g><g transform="matrix(54,0,0,54,0,228.537)"><path d="M0.167,-0l-0,-0.167l0.166,0l0,0.167l-0.166,-0Zm-0.167,-0.167l0,-0.5l0.167,0l-0,0.5l-0.167,0Zm0.167,-0.5l-0,-0.166l0.166,-0l0,0.166l-0.166,0Z" style="fill-rule:nonzero;"/></g><g transform="matrix(54,0,0,54,35.9912,228.537)"><path d="M0.167,-0l-0,-0.167l0.333,0l0,0.167l-0.333,-0Zm-0.167,-0.167l0,-0.5l0.167,0l-0,0.5l-0.167,0Zm0.167,-0.5l-0,-0.166l0.333,-0l0,0.166l-0.333,0Z" style="fill-rule:nonzero;"/></g><g transform="matrix(54,0,0,54,71.9824,228.537)"><path d="M0,-0l0,-0.667l0.167,0l-0,0.5l0.166,0l0,0.167l-0.333,0Zm0.333,-0.167l0,-0.5l-0.166,0l-0,-0.166l0.333,-0l0,0.666l-0.167,0Z" style="fill-rule:nonzero;"/></g><g transform="matrix(54,0,0,54,107.974,228.537)"><path d="M0,-0l0,-0.833l0.333,-0l0,0.166l-0.166,0l-0,0.5l0.166,0l0,-0.5l0.167,0l0,0.667l-0.5,-0Z" style="fill-rule:nonzero;"/></g><g transform="matrix(54,0,0,54,143.965,228.537)"><path d="M0,-0l0,-0.833l0.5,-0l0,0.166l-0.333,0l-0,0.167l0.166,-0l0,0.167l-0.166,-0l-0,0.166l0.333,0l0,0.167l-0.5,-0Z" style="fill-rule:nonzero;"/></g><g transform="matrix(54,0,0,54,179.956,228.537)"><path d="M0.167,-0l-0,-0.167l0.166,0l0,0.167l-0.166,-0Zm0.166,-0.167l0,-0.5l0.167,0l0,0.5l-0.167,0Zm-0.166,-0.5l-0,-0.166l0.166,-0l0,0.166l-0.166,0Z" style="fill-rule:nonzero;"/></g></g><g transform="matrix(1,0,0,1,739.044,254.472)"><g transform="matrix(54,0,0,54,-107.974,165.537)"><path d="M0.333,-0.5l0,-0.167l-0.166,0l-0,0.167l0.166,0Zm-0.333,0.5l0,-0.833l0.5,-0l0,0.833l-0.167,-0l0,-0.333l-0.166,-0l-0,0.333l-0.167,-0Z" style="fill-rule:nonzero;"/></g><g transform="matrix(54,0,0,54,-71.9824,165.537)"><path d="M0,-0l0,-0.833l0.167,-0l-0,0.666l0.333,0l0,0.167l-0.5,-0Z" style="fill-rule:nonzero;"/></g><g transform="matrix(54,0,0,54,-35.9912,165.537)"><path d="M0,-0l0,-0.833l0.167,-0l-0,0.666l0.333,0l0,0.167l-0.5,-0Z" style="fill-rule:nonzero;"/></g><g transform="matrix(54,0,0,54,35.9912,165.537)"><path d="M0,-0l0,-0.833l0.5,-0l0,0.166l-0.333,0l-0,0.167l0.166,-0l0,0.167l-0.166,-0l-0,0.333l-0.167,-0Z" style="fill-rule:nonzero;"/></g><g transform="matrix(54,0,0,54,71.9824,165.537)"><path d="M0,-0l0,-0.667l0.167,0l-0,0.5l0.166,0l0,0.167l-0.333,0Zm0.333,-0.167l0,-0.5l-0.166,0l-0,-0.166l0.333,-0l0,0.666l-0.167,0Z" style="fill-rule:nonzero;"/></g><g transform="matrix(54,0,0,54,107.974,165.537)"><path d="M0.333,-0l0,-0.667l0.167,0l0,0.667l-0.167,-0Zm-0.333,-0l0,-0.833l0.333,-0l0,0.166l-0.166,0l-0,0.667l-0.167,-0Z" style="fill-rule:nonzero;"/></g><g transform="matrix(54,0,0,54,143.965,165.537)"><path d="M0.167,-0l-0,-0.667l-0.167,0l0,-0.166l0.5,-0l0,0.166l-0.167,0l0,0.667l-0.166,-0Z" style="fill-rule:nonzero;"/></g><g transform="matrix(54,0,0,54,179.956,165.537)"><path d="M0,-0l0,-0.167l0.333,0l0,0.167l-0.333,-0Zm0.333,-0.167l0,-0.166l-0.333,-0l0,-0.334l0.167,0l-0,0.167l0.333,0l0,0.333l-0.167,0Zm-0.166,-0.5l-0,-0.166l0.333,-0l0,0.166l-0.333,0Z" style="fill-rule:nonzero;"/></g><g transform="matrix(54,0,0,54,-107.974,228.537)"><path d="M0.333,-0.5l0,-0.167l-0.166,0l-0,0.167l0.166,0Zm-0.333,0.5l0,-0.833l0.5,-0l0,0.833l-0.167,-0l0,-0.333l-0.166,-0l-0,0.333l-0.167,-0Z" style="fill-rule:nonzero;"/></g><g transform="matrix(54,0,0,54,-71.9824,228.537)"><path d="M0.167,-0l-0,-0.167l-0.167,0l0,-0.666l0.167,-0l-0,0.5l0.166,-0l0,-0.5l0.167,-0l0,0.666l-0.167,0l0,0.167l-0.166,0Z" style="fill-rule:nonzero;"/></g><g transform="matrix(54,0,0,54,-35.9912,228.537)"><path d="M0.333,-0.5l0,-0.167l-0.166,0l-0,0.167l0.166,0Zm-0.333,0.5l0,-0.833l0.5,-0l0,0.833l-0.167,-0l0,-0.333l-0.166,-0l-0,0.333l-0.167,-0Z" style="fill-rule:nonzero;"/></g><g transform="matrix(54,0,0,54,0,228.537)"><path d="M0,-0l0,-0.167l0.167,0l-0,-0.5l-0.167,0l0,-0.166l0.5,-0l0,0.166l-0.167,0l0,0.5l0.167,0l0,0.167l-0.5,0Z" style="fill-rule:nonzero;"/></g><g transform="matrix(54,0,0,54,35.9912,228.537)"><path d="M0,-0l0,-0.833l0.167,-0l-0,0.666l0.333,0l0,0.167l-0.5,-0Z" style="fill-rule:nonzero;"/></g><g transform="matrix(54,0,0,54,71.9824,228.537)"><path d="M0.333,-0.5l0,-0.167l-0.166,0l-0,0.167l0.166,0Zm-0.333,0.5l0,-0.833l0.5,-0l0,0.833l-0.167,-0l0,-0.333l-0.166,-0l-0,0.333l-0.167,-0Z" style="fill-rule:nonzero;"/></g><g transform="matrix(54,0,0,54,107.974,228.537)"><path d="M0,-0l0,-0.833l0.5,-0l0,0.333l-0.167,-0l0,-0.167l-0.166,0l-0,0.167l0.166,-0l0,0.167l-0.166,-0l-0,0.166l0.166,0l0,-0.166l0.167,-0l0,0.333l-0.5,-0Z" style="fill-rule:nonzero;"/></g><g transform="matrix(54,0,0,54,143.965,228.537)"><path d="M0,-0l0,-0.833l0.167,-0l-0,0.666l0.333,0l0,0.167l-0.5,-0Z" style="fill-rule:nonzero;"/></g><g transform="matrix(54,0,0,54,179.956,228.537)"><path d="M0,-0l0,-0.833l0.5,-0l0,0.166l-0.333,0l-0,0.167l0.166,-0l0,0.167l-0.166,-0l-0,0.166l0.333,0l0,0.167l-0.5,-0Z" style="fill-rule:nonzero;"/></g><g transform="matrix(54,0,0,54,-143.965,291.537)"><path d="M0,-0l0,-0.667l0.167,0l-0,0.5l0.166,0l0,0.167l-0.333,0Zm0.333,-0.167l0,-0.5l-0.166,0l-0,-0.166l0.333,-0l0,0.666l-0.167,0Z" style="fill-rule:nonzero;"/></g><g transform="matrix(54,0,0,54,-107.974,291.537)"><path d="M0.333,-0l0,-0.667l0.167,0l0,0.667l-0.167,-0Zm-0.333,-0l0,-0.833l0.333,-0l0,0.166l-0.166,0l-0,0.667l-0.167,-0Z" style="fill-rule:nonzero;"/></g><g transform="matrix(54,0,0,54,-35.9912,291.537)"><path d="M0,-0l0,-0.167l0.167,0l-0,-0.5l-0.167,0l0,-0.166l0.5,-0l0,0.166l-0.167,0l0,0.5l0.167,0l0,0.167l-0.5,0Z" style="fill-rule:nonzero;"/></g><g transform="matrix(54,0,0,54,0,291.537)"><path d="M0.167,-0l-0,-0.667l-0.167,0l0,-0.166l0.5,-0l0,0.166l-0.167,0l0,0.667l-0.166,-0Z" style="fill-rule:nonzero;"/></g><g transform="matrix(54,0,0,54,35.9912,291.537)"><path d="M0.167,-0l-0,-0.167l0.333,0l0,0.167l-0.333,-0Zm-0.167,-0.167l0,-0.5l0.167,0l-0,0.5l-0.167,0Zm0.167,-0.5l-0,-0.166l0.333,-0l0,0.166l-0.333,0Z" style="fill-rule:nonzero;"/></g><g transform="matrix(54,0,0,54,71.9824,291.537)"><path d="M0,-0l0,-0.833l0.167,-0l-0,0.333l0.166,-0l0,-0.333l0.167,-0l0,0.833l-0.167,-0l0,-0.333l-0.166,-0l-0,0.333l-0.167,-0Z" style="fill-rule:nonzero;"/></g><g transform="matrix(54,0,0,54,107.974,291.537)"><rect x="0.167" y="-0.167" width="0.167" height="0.167" style="fill-rule:nonzero;"/></g><g transform="matrix(54,0,0,54,143.965,291.537)"><path d="M0,-0l0,-0.167l0.167,0l-0,-0.5l-0.167,0l0,-0.166l0.5,-0l0,0.166l-0.167,0l0,0.5l0.167,0l0,0.167l-0.5,0Z" style="fill-rule:nonzero;"/></g><g transform="matrix(54,0,0,54,179.956,291.537)"><path d="M0,-0l0,-0.667l0.167,0l-0,0.5l0.166,0l0,0.167l-0.333,0Zm0.333,-0.167l0,-0.5l-0.166,0l-0,-0.166l0.333,-0l0,0.666l-0.167,0Z" style="fill-rule:nonzero;"/></g></g></svg>